<?xml version="1.0" encoding="UTF-8"?>
<svg xmlns="http://www.w3.org/2000/svg" xmlns:xlink="http://www.w3.org/1999/xlink" width="20px" height="20px" viewBox="0 0 20 20" version="1.1">
<g id="surface1">
<path style=" stroke:none;fill-rule:nonzero;fill:rgb(0%,0%,0%);fill-opacity:1;" d="M 17.003906 13.621094 C 15.199219 11.667969 12.660156 10.554688 10 10.554688 C 7.339844 10.554688 4.800781 11.667969 2.996094 13.621094 C 2.855469 13.773438 2.78125 13.972656 2.777344 14.179688 L 2.777344 17.511719 C 2.785156 17.96875 3.15625 18.332031 3.609375 18.332031 L 16.390625 18.332031 C 16.847656 18.332031 17.222656 17.960938 17.222656 17.5 L 17.222656 14.167969 C 17.21875 13.964844 17.140625 13.773438 17.003906 13.621094 Z M 17.003906 13.621094 "/>
<path style=" stroke:none;fill-rule:nonzero;fill:rgb(0%,0%,0%);fill-opacity:1;" d="M 13.890625 5.554688 C 13.890625 7.703125 12.148438 9.445312 10 9.445312 C 7.851562 9.445312 6.109375 7.703125 6.109375 5.554688 C 6.109375 3.40625 7.851562 1.667969 10 1.667969 C 12.148438 1.667969 13.890625 3.40625 13.890625 5.554688 Z M 13.890625 5.554688 "/>
</g>
</svg>
