<?xml version="1.0" encoding="UTF-8"?>
<svg xmlns="http://www.w3.org/2000/svg" xmlns:xlink="http://www.w3.org/1999/xlink" width="20px" height="20px" viewBox="0 0 20 20" version="1.1">
<g id="surface1">
<path style=" stroke:none;fill-rule:nonzero;fill:rgb(0%,0%,0%);fill-opacity:1;" d="M 16.875 18.125 L 14.375 18.125 L 14.375 5 L 16.875 5 C 17.566406 5 18.125 5.558594 18.125 6.25 L 18.125 16.875 C 18.125 17.566406 17.566406 18.125 16.875 18.125 Z M 6.25 5 L 6.25 3.75 C 6.25 3.058594 6.808594 2.5 7.5 2.5 L 11.875 2.5 C 12.566406 2.5 13.125 3.058594 13.125 3.75 L 13.125 18.125 L 6.25 18.125 Z M 7.5 5 L 11.875 5 C 11.875 5 11.875 4.71875 11.875 4.375 C 11.875 4.03125 11.59375 3.75 11.25 3.75 L 8.125 3.75 C 7.78125 3.75 7.5 4.03125 7.5 4.375 C 7.5 4.71875 7.5 5 7.5 5 Z M 1.25 16.875 L 1.25 6.25 C 1.25 5.558594 1.808594 5 2.5 5 L 5 5 L 5 18.125 L 2.5 18.125 C 1.808594 18.125 1.25 17.566406 1.25 16.875 Z M 1.25 16.875 "/>
</g>
</svg>
