<?xml version="1.0" encoding="UTF-8"?>
<svg xmlns="http://www.w3.org/2000/svg" xmlns:xlink="http://www.w3.org/1999/xlink" width="20px" height="20px" viewBox="0 0 20 20" version="1.1">
<g id="surface1">
<path style="fill-rule:nonzero;fill:rgb(13.72549%,12.156863%,12.54902%);fill-opacity:1;stroke-width:0.00024;stroke-linecap:butt;stroke-linejoin:miter;stroke:rgb(0%,0%,0%);stroke-opacity:1;stroke-miterlimit:4;" d="M 21.6 9.839063 C 21.43125 9.576563 21.290625 9.295313 21.178125 9 C 21.084375 8.7 21.023438 8.385938 21 8.071875 C 20.985938 7.303125 20.765625 6.557813 20.357813 5.910938 C 19.865625 5.320313 19.21875 4.879688 18.492188 4.63125 C 18.192188 4.514063 17.90625 4.373438 17.639063 4.2 C 17.409375 3.998438 17.19375 3.778125 17.001563 3.539063 C 16.542188 2.915625 15.91875 2.432813 15.201563 2.142188 C 14.475 1.96875 13.715625 1.992188 12.998438 2.207813 C 12.360938 2.357813 11.7 2.357813 11.057813 2.207813 C 10.33125 1.9875 9.557813 1.959375 8.821875 2.142188 C 8.095313 2.428125 7.467188 2.915625 6.998438 3.539063 C 6.801563 3.778125 6.58125 3.998438 6.342188 4.2 C 6.070313 4.373438 5.789063 4.514063 5.489063 4.63125 C 4.757813 4.879688 4.110938 5.320313 3.609375 5.910938 C 3.215625 6.5625 3.004688 7.307813 3 8.071875 C 2.976563 8.385938 2.915625 8.7 2.821875 9 C 2.709375 9.285938 2.56875 9.5625 2.4 9.820313 C 1.95 10.4625 1.682813 11.217188 1.63125 12 C 1.6875 12.778125 1.954688 13.523438 2.4 14.160938 C 2.573438 14.414063 2.714063 14.690625 2.821875 14.98125 C 2.90625 15.290625 2.957813 15.609375 2.971875 15.928125 C 2.98125 16.696875 3.201563 17.442188 3.609375 18.089063 C 4.10625 18.679688 4.753125 19.120313 5.479688 19.36875 C 5.775 19.485938 6.060938 19.626563 6.328125 19.8 C 6.571875 20.001563 6.792188 20.221875 6.989063 20.460938 C 7.448438 21.089063 8.071875 21.571875 8.789063 21.857813 C 9.070313 21.946875 9.365625 21.989063 9.660938 21.989063 C 10.110938 21.975 10.560938 21.914063 11.001563 21.810938 C 11.639063 21.651563 12.304688 21.651563 12.942188 21.810938 C 13.66875 22.026563 14.442188 22.045313 15.178125 21.871875 C 15.9 21.58125 16.523438 21.098438 16.978125 20.470313 C 17.179688 20.23125 17.4 20.010938 17.639063 19.809375 C 17.90625 19.640625 18.192188 19.495313 18.492188 19.378125 C 19.21875 19.129688 19.865625 18.689063 20.357813 18.098438 C 20.765625 17.451563 20.985938 16.70625 21 15.942188 C 21.014063 15.61875 21.060938 15.3 21.15 14.990625 C 21.2625 14.704688 21.403125 14.428125 21.571875 14.170313 C 22.03125 13.532813 22.307813 12.782813 22.36875 12 C 22.3125 11.221875 22.045313 10.476563 21.6 9.839063 Z M 16.710938 10.710938 L 11.709375 15.707813 C 11.521875 15.9 11.26875 16.007813 11.001563 16.007813 C 10.734375 16.007813 10.476563 15.9 10.289063 15.707813 L 7.289063 12.707813 C 6.9 12.31875 6.9 11.68125 7.289063 11.292188 C 7.682813 10.898438 8.315625 10.898438 8.709375 11.292188 L 11.001563 13.589063 L 15.290625 9.290625 C 15.684375 8.896875 16.317188 8.896875 16.710938 9.290625 C 17.1 9.684375 17.1 10.317188 16.710938 10.710938 Z M 16.710938 10.710938 " transform="matrix(0.833333,0,0,0.833333,0,0)"/>
</g>
</svg>
